<svg width="349" height="120" viewBox="0 0 349 120" fill="none" xmlns="http://www.w3.org/2000/svg">
<path fill-rule="evenodd" clip-rule="evenodd" d="M25.2553 119.272L21.0036 87.1284C7.99334 79.9345 -12.0577 48.557 9.52396 18.7097C45.3405 -21.2394 86.2081 14.5772 88.0449 18.7097C93.1865 22.449 94.0459 32.4927 94.9216 42.7261C95.7664 52.599 96.6263 62.6484 101.361 67.3834C102.513 68.5347 103.711 69.579 104.799 70.5264C107.615 72.9798 109.685 74.7829 108.249 76.108L98.147 82.5366L91.7184 109.629C83.3 111.771 64.6264 113.302 55.9018 108.71C53.1467 108.251 52.6875 114.221 52.6875 119.272H25.2553ZM53.0047 77.5052C33.4127 79.0359 5.24919 62.8115 19.484 32.9642C48.4127 -9.28075 104.434 45.3622 65.4027 71.0766C66.4741 76.5869 70.0863 88.1586 75.9639 90.3627C83.3109 93.1178 55.7599 92.199 53.0047 77.5052Z" fill="url(#paint0_linear)"/>
<path d="M36 49.6123C36 51.0404 37.1494 52.1898 38.5775 52.1898C40.0055 52.1898 41.1898 51.0404 41.1898 49.6123C41.1898 48.1842 40.0055 47 38.5775 47C37.1494 47 36 48.1842 36 49.6123Z" fill="url(#paint1_linear)"/>
<path d="M44.525 49.6123C44.525 51.0404 45.6744 52.1898 47.1024 52.1898C48.5305 52.1898 49.7147 51.0404 49.7147 49.6123C49.7147 48.1842 48.5305 47 47.1024 47C45.6744 47 44.525 48.1842 44.525 49.6123Z" fill="url(#paint2_linear)"/>
<path d="M53.0499 49.6123C53.0499 51.0404 54.1994 52.1898 55.6274 52.1898C57.0555 52.1898 58.2397 51.0404 58.2397 49.6123C58.2397 48.1842 57.0555 47 55.6274 47C54.1994 47 53.0499 48.1842 53.0499 49.6123Z" fill="url(#paint3_linear)"/>
<path d="M139.846 39.2088C139.846 35.0924 136.525 31.7716 132.409 31.7716H126.251H126.217C125.179 31.7716 124.314 32.6018 124.314 33.6741V54.0833C124.314 55.121 125.179 55.9858 126.217 55.9858C127.289 55.9858 128.154 55.121 128.154 54.0833V46.5769H132.409C136.525 46.5769 139.846 43.2561 139.846 39.2088ZM128.154 35.6113H132.409C134.415 35.6113 135.972 37.2025 136.006 39.2088C135.972 41.146 134.415 42.7372 132.409 42.7372H128.154V35.6113ZM144.007 53.599C145.391 54.7059 147.466 55.9512 150.165 55.9858C151.86 55.9858 153.416 55.467 154.662 54.6022C155.907 53.7028 156.841 52.2845 156.841 50.5895C156.841 49.7939 156.599 48.9983 156.184 48.3065C155.596 47.3379 154.662 46.6806 153.728 46.2655C152.724 45.7813 151.652 45.4699 150.511 45.2624H150.476L150.441 45.2278C149.265 45.0202 148.366 44.7089 147.916 44.3976C147.674 44.2592 147.57 44.1208 147.536 44.0517C147.466 43.9479 147.466 43.9133 147.466 43.7749C147.466 43.602 147.57 43.2906 148.02 42.9793C148.47 42.6334 149.231 42.3567 150.095 42.3567C151.202 42.3567 152.171 42.9101 153.278 43.6366C154.143 44.2246 155.284 43.9825 155.838 43.1523C156.357 42.2875 156.114 41.146 155.284 40.5925C154.177 39.8315 152.482 38.6899 150.095 38.6899C148.504 38.6899 147.051 39.1396 145.841 39.9698C144.699 40.8346 143.8 42.1837 143.8 43.7749C143.8 44.5705 144.007 45.3316 144.388 45.9542C145.01 46.8882 145.841 47.5108 146.775 47.9605C147.674 48.3756 148.712 48.6524 149.784 48.8599H149.819C151.064 49.1021 152.102 49.4826 152.586 49.8285C152.863 50.0015 153.001 50.1398 153.036 50.2436C153.105 50.3474 153.139 50.4166 153.139 50.5895C153.139 50.8663 153.001 51.2122 152.517 51.6273C151.963 51.9732 151.099 52.2845 150.165 52.2845C148.816 52.3191 147.259 51.5235 146.359 50.7625C145.598 50.1052 144.388 50.209 143.765 51.0392C143.142 51.8002 143.246 52.9764 144.007 53.599ZM164.018 38.7245C162.98 38.7245 162.15 39.5201 162.15 40.6271V54.1179C162.15 55.1556 162.98 55.9858 164.018 55.9858C165.09 55.9858 165.886 55.1556 165.886 54.1179V40.6271C165.886 39.5201 165.09 38.7245 164.018 38.7245ZM165.886 33.6395C165.886 32.6018 165.09 31.7716 164.018 31.7716C162.98 31.7716 162.15 32.6018 162.15 33.6395V34.366C162.15 35.4037 162.98 36.2685 164.018 36.2685C165.09 36.2685 165.886 35.4037 165.886 34.366V33.6395ZM179.914 55.9858C181.989 55.9858 183.927 55.2248 185.414 54.1525C186.21 53.4606 186.348 52.3537 185.794 51.5927C185.103 50.7625 183.961 50.6241 183.2 51.2122C182.301 51.8694 181.159 52.3191 179.914 52.3191C177.112 52.3191 174.794 50.036 174.794 47.3725C174.794 44.7089 177.112 42.3913 179.914 42.3913C181.194 42.3913 182.301 42.8409 183.2 43.4982C183.996 44.1208 185.103 43.9825 185.794 43.1523C186.348 42.3913 186.21 41.2151 185.414 40.5925C183.927 39.451 181.989 38.6899 179.914 38.6899C175.14 38.7245 171.128 42.5642 171.128 47.3725C171.128 52.1116 175.14 55.9858 179.914 55.9858ZM199.629 56.0896C201.912 56.0896 203.987 55.0865 205.405 53.4606C206.962 51.9386 207.827 49.7939 207.827 47.3725C207.827 45.0202 206.962 42.9793 205.405 41.3189C203.987 39.6931 201.912 38.6899 199.629 38.6899C197.242 38.6899 195.235 39.6931 193.679 41.3189C192.191 42.9793 191.292 45.0202 191.292 47.3725C191.292 49.7939 192.191 51.9386 193.679 53.4606C195.235 55.0865 197.242 56.0896 199.629 56.0896ZM196.308 43.7749C197.173 43.0139 198.314 42.4604 199.629 42.4604C200.839 42.4604 201.946 43.0139 202.811 43.7749C203.676 44.7089 204.16 45.9542 204.16 47.3725C204.16 48.8599 203.676 50.0706 202.811 51.0392C201.946 51.8694 200.839 52.3191 199.629 52.3191C198.314 52.3191 197.173 51.8694 196.308 51.0392C195.512 50.0706 195.063 48.8599 195.063 47.3725C195.063 45.9542 195.512 44.7089 196.308 43.7749ZM216.485 55.9858L216.519 55.9512C216.519 55.9512 216.519 55.9858 216.589 55.9858H227.796C228.799 55.9858 229.699 55.121 229.699 54.0833C229.699 53.0109 228.799 52.1461 227.796 52.1461H218.422V45.7813H226.482C227.52 45.7813 228.384 44.9165 228.384 43.8441C228.384 42.8409 227.52 41.9416 226.482 41.9416H218.422V35.6113H227.796C228.799 35.6113 229.699 34.7465 229.699 33.6741C229.699 32.6018 228.799 31.7716 227.796 31.7716H216.589C216.519 31.7716 216.519 31.7716 216.519 31.7716H216.485C215.412 31.7716 214.582 32.6018 214.582 33.6741V54.0833C214.582 55.121 215.412 55.9858 216.485 55.9858ZM234.613 53.599C235.997 54.7059 238.072 55.9512 240.77 55.9858C242.465 55.9858 244.022 55.467 245.267 54.6022C246.512 53.7028 247.446 52.2845 247.446 50.5895C247.446 49.7939 247.204 48.9983 246.789 48.3065C246.201 47.3379 245.267 46.6806 244.333 46.2655C243.33 45.7813 242.258 45.4699 241.116 45.2624H241.082L241.047 45.2278C239.871 45.0202 238.971 44.7089 238.522 44.3976C238.28 44.2592 238.176 44.1208 238.141 44.0517C238.072 43.9479 238.072 43.9133 238.072 43.7749C238.072 43.602 238.176 43.2906 238.626 42.9793C239.075 42.6334 239.836 42.3567 240.701 42.3567C241.808 42.3567 242.777 42.9101 243.884 43.6366C244.748 44.2246 245.89 43.9825 246.443 43.1523C246.962 42.2875 246.72 41.146 245.89 40.5925C244.783 39.8315 243.088 38.6899 240.701 38.6899C239.11 38.6899 237.657 39.1396 236.446 39.9698C235.305 40.8346 234.405 42.1837 234.405 43.7749C234.405 44.5705 234.613 45.3316 234.993 45.9542C235.616 46.8882 236.446 47.5108 237.38 47.9605C238.28 48.3756 239.317 48.6524 240.39 48.8599H240.424C241.67 49.1021 242.707 49.4826 243.192 49.8285C243.468 50.0015 243.607 50.1398 243.641 50.2436C243.711 50.3474 243.745 50.4166 243.745 50.5895C243.745 50.8663 243.607 51.2122 243.122 51.6273C242.569 51.9732 241.704 52.2845 240.77 52.2845C239.421 52.3191 237.865 51.5235 236.965 50.7625C236.204 50.1052 234.993 50.209 234.371 51.0392C233.748 51.8002 233.852 52.9764 234.613 53.599ZM254.554 62.4891C255.661 62.4891 256.526 61.5897 256.526 60.6211V54.533C257.771 55.4324 259.432 55.9512 261.161 55.9512C265.762 55.9512 269.532 52.1116 269.532 47.3725C269.532 42.6334 265.762 38.6899 261.161 38.6899C259.397 38.6899 257.737 39.278 256.457 40.1082C256.318 39.3472 255.523 38.6899 254.554 38.6899C253.551 38.6899 252.721 39.5201 252.721 40.5233V47.3725C252.721 47.4071 252.721 47.4071 252.721 47.4071V60.6211C252.721 61.5897 253.551 62.4891 254.554 62.4891ZM257.875 43.8787C258.74 42.9447 259.881 42.4604 261.161 42.4604C262.337 42.4604 263.513 42.9447 264.413 43.8787C265.208 44.7781 265.762 46.0234 265.762 47.3725C265.762 48.7216 265.208 50.036 264.413 50.8317C263.513 51.8002 262.337 52.2845 261.161 52.2845C259.881 52.2845 258.74 51.8002 257.875 50.8317C256.976 50.036 256.526 48.7216 256.526 47.3725C256.526 46.0234 256.976 44.7781 257.875 43.8787ZM290.683 40.5579C290.683 39.5201 289.853 38.6899 288.85 38.6899C287.951 38.6899 287.259 39.3472 287.051 40.212C285.737 39.278 284.18 38.6899 282.45 38.6899C280.098 38.6899 278.057 39.6931 276.57 41.2843C275.082 42.8409 274.218 44.9856 274.218 47.3725C274.218 49.7247 275.082 51.8694 276.57 53.4606C278.057 55.0173 280.098 55.9858 282.45 55.9858C284.18 55.9858 285.737 55.4324 287.051 54.4984C287.259 55.3286 287.951 55.9858 288.85 55.9858C289.853 55.9858 290.683 55.1556 290.683 54.1525V47.3725V40.5579ZM285.667 50.9354C284.837 51.8002 283.661 52.2845 282.45 52.2845C281.205 52.2845 280.029 51.8002 279.233 50.9354C278.403 50.036 277.919 48.7907 277.919 47.3725C277.919 45.9196 278.403 44.6743 279.233 43.8095C280.029 42.8755 281.205 42.3913 282.45 42.3913C283.661 42.3913 284.837 42.8755 285.667 43.8095C286.498 44.6743 287.017 45.9196 287.017 47.3725C287.017 48.7907 286.498 50.036 285.667 50.9354ZM305.538 55.9858C307.613 55.9858 309.551 55.2248 311.038 54.1525C311.834 53.4606 311.972 52.3537 311.419 51.5927C310.727 50.7625 309.585 50.6241 308.824 51.2122C307.925 51.8694 306.783 52.3191 305.538 52.3191C302.736 52.3191 300.418 50.036 300.418 47.3725C300.418 44.7089 302.736 42.3913 305.538 42.3913C306.818 42.3913 307.925 42.8409 308.824 43.4982C309.62 44.1208 310.727 43.9825 311.419 43.1523C311.972 42.3913 311.834 41.2151 311.038 40.5925C309.551 39.451 307.613 38.6899 305.538 38.6899C300.764 38.7245 296.752 42.5642 296.752 47.3725C296.752 52.1116 300.764 55.9858 305.538 55.9858ZM320.121 38.7245C319.083 38.7245 318.253 39.5201 318.253 40.6271V54.1179C318.253 55.1556 319.083 55.9858 320.121 55.9858C321.193 55.9858 321.989 55.1556 321.989 54.1179V40.6271C321.989 39.5201 321.193 38.7245 320.121 38.7245ZM321.989 33.6395C321.989 32.6018 321.193 31.7716 320.121 31.7716C319.083 31.7716 318.253 32.6018 318.253 33.6395V34.366C318.253 35.4037 319.083 36.2685 320.121 36.2685C321.193 36.2685 321.989 35.4037 321.989 34.366V33.6395ZM335.983 56.0896C338.266 56.0896 340.341 55.0865 341.759 53.4606C343.316 51.9386 344.181 49.7939 344.181 47.3725C344.181 45.0202 343.316 42.9793 341.759 41.3189C340.341 39.6931 338.266 38.6899 335.983 38.6899C333.596 38.6899 331.589 39.6931 330.033 41.3189C328.545 42.9793 327.646 45.0202 327.646 47.3725C327.646 49.7939 328.545 51.9386 330.033 53.4606C331.589 55.0865 333.596 56.0896 335.983 56.0896ZM332.662 43.7749C333.527 43.0139 334.668 42.4604 335.983 42.4604C337.193 42.4604 338.3 43.0139 339.165 43.7749C340.03 44.7089 340.514 45.9542 340.514 47.3725C340.514 48.8599 340.03 50.0706 339.165 51.0392C338.3 51.8694 337.193 52.3191 335.983 52.3191C334.668 52.3191 333.527 51.8694 332.662 51.0392C331.866 50.0706 331.416 48.8599 331.416 47.3725C331.416 45.9542 331.866 44.7089 332.662 43.7749Z" fill="#8A8A8A"/>
<path d="M129.493 83.1069C131.954 83.1069 134.119 81.8023 135.364 79.8158C135.572 79.46 135.453 79.0449 135.127 78.8077C134.83 78.6298 134.386 78.6891 134.178 79.0449C133.2 80.6756 131.42 81.6837 129.493 81.6837C126.499 81.6837 124.008 79.2821 123.86 76.1095H135.779C136.165 76.1095 136.491 75.8427 136.491 75.4572V75.3683V75.3386C136.194 71.5434 133.229 68.5784 129.493 68.5784C125.579 68.5784 122.437 71.8399 122.437 75.8723C122.437 79.8454 125.579 83.1069 129.493 83.1069ZM129.493 70.0016C132.162 70.0016 134.474 71.9881 134.949 74.7159H123.949C124.482 71.9585 126.765 70.0016 129.493 70.0016ZM152.414 82.3953C152.414 82.8104 152.74 83.1069 153.126 83.1069C153.511 83.1069 153.837 82.8104 153.837 82.3953V74.5084C153.837 71.2765 151.198 68.608 147.937 68.608C146.128 68.608 144.497 69.4382 143.43 70.7132V69.3196C143.43 68.9342 143.134 68.608 142.748 68.608C142.333 68.608 142.036 68.9342 142.036 69.3196V74.2712V74.5084V82.3953V82.5732C142.036 82.5732 142.066 82.6029 142.066 82.6325C142.066 82.6622 142.066 82.6918 142.096 82.7215C142.185 82.8994 142.363 83.0476 142.57 83.1069H142.748C142.956 83.1069 143.163 83.018 143.282 82.8401C143.371 82.7511 143.4 82.6325 143.43 82.5139V82.3953V74.5084C143.489 72.0474 145.476 70.0312 147.937 70.0312C150.427 70.0312 152.414 72.0474 152.414 74.5084V82.3953ZM170.305 82.3953C170.305 82.7808 170.632 83.1069 171.017 83.1069C171.432 83.1069 171.758 82.7808 171.758 82.3953V63.0634C171.758 62.678 171.432 62.3518 171.017 62.3518C170.632 62.3518 170.305 62.678 170.305 63.0634V82.3953ZM178.005 82.3953C178.005 82.7808 178.331 83.1069 178.717 83.1069C179.132 83.1069 179.458 82.7808 179.458 82.3953V69.29C179.458 68.8749 179.132 68.5784 178.717 68.5784C178.331 68.5784 178.005 68.8749 178.005 69.29V82.3953ZM178.005 65.2279C178.005 65.643 178.331 65.9988 178.717 65.9988C179.132 65.9988 179.458 65.643 179.458 65.2279V64.546C179.458 64.1605 179.132 63.8343 178.717 63.8343C178.331 63.8343 178.005 64.1605 178.005 64.546V65.2279ZM197.186 82.3953C197.186 82.8104 197.513 83.1069 197.898 83.1069C198.284 83.1069 198.61 82.8104 198.61 82.3953V74.5084C198.61 71.2765 195.971 68.608 192.709 68.608C190.901 68.608 189.27 69.4382 188.202 70.7132V69.3196C188.202 68.9342 187.906 68.608 187.521 68.608C187.105 68.608 186.809 68.9342 186.809 69.3196V74.2712V74.5084V82.3953V82.5732C186.809 82.5732 186.839 82.6029 186.839 82.6325C186.839 82.6622 186.839 82.6918 186.868 82.7215C186.957 82.8994 187.135 83.0476 187.343 83.1069H187.521C187.728 83.1069 187.936 83.018 188.054 82.8401C188.143 82.7511 188.173 82.6325 188.202 82.5139V82.3953V74.5084C188.262 72.0474 190.248 70.0312 192.709 70.0312C195.2 70.0312 197.186 72.0474 197.186 74.5084V82.3953ZM211.506 83.1069C213.967 83.1069 216.131 81.8023 217.377 79.8158C217.584 79.46 217.466 79.0449 217.139 78.8077C216.843 78.6298 216.398 78.6891 216.191 79.0449C215.212 80.6756 213.433 81.6837 211.506 81.6837C208.511 81.6837 206.021 79.2821 205.872 76.1095H217.792C218.177 76.1095 218.503 75.8427 218.503 75.4572V75.3683V75.3386C218.207 71.5434 215.242 68.5784 211.506 68.5784C207.592 68.5784 204.449 71.8399 204.449 75.8723C204.449 79.8454 207.592 83.1069 211.506 83.1069ZM211.506 70.0016C214.174 70.0016 216.487 71.9881 216.962 74.7159H205.961C206.495 71.9585 208.778 70.0016 211.506 70.0016ZM235.524 68.5784C235.138 68.5784 234.812 68.8749 234.812 69.29V71.4248C233.567 69.7051 231.58 68.5784 229.357 68.5784C225.532 68.5784 222.478 71.8695 222.478 75.8427C222.478 79.8158 225.532 83.1069 229.357 83.1069C231.58 83.1069 233.567 81.9506 234.812 80.2309V82.3953C234.812 82.7808 235.138 83.1069 235.524 83.1069C235.909 83.1069 236.235 82.7808 236.235 82.3953V69.29C236.235 68.8749 235.909 68.5784 235.524 68.5784ZM229.357 81.6837C226.392 81.6837 223.901 79.1042 223.901 75.8427C223.901 72.5811 226.392 69.9719 229.357 69.9719C232.351 69.9719 234.812 72.5811 234.812 75.8427C234.812 79.1042 232.351 81.6837 229.357 81.6837Z" fill="#8A8A8A"/>
<defs>
<linearGradient id="paint0_linear" x1="11" y1="10.5" x2="54.3586" y2="119.272" gradientUnits="userSpaceOnUse">
<stop stop-color="#30CFD0"/>
<stop offset="1" stop-color="#1359A6"/>
</linearGradient>
<linearGradient id="paint1_linear" x1="38.2502" y1="47.4569" x2="38.712" y2="52.9027" gradientUnits="userSpaceOnUse">
<stop stop-color="#30CFD0"/>
<stop offset="1" stop-color="#1359A6"/>
</linearGradient>
<linearGradient id="paint2_linear" x1="38.2502" y1="47.4569" x2="38.712" y2="52.9027" gradientUnits="userSpaceOnUse">
<stop stop-color="#30CFD0"/>
<stop offset="1" stop-color="#1359A6"/>
</linearGradient>
<linearGradient id="paint3_linear" x1="38.2502" y1="47.4569" x2="38.712" y2="52.9027" gradientUnits="userSpaceOnUse">
<stop stop-color="#30CFD0"/>
<stop offset="1" stop-color="#1359A6"/>
</linearGradient>
</defs>
</svg>
