<svg width="445" height="488" viewBox="0 0 445 488" fill="none" xmlns="http://www.w3.org/2000/svg">
<path fill-rule="evenodd" clip-rule="evenodd" d="M341.484 488L358.88 356.486C412.112 327.052 494.151 198.671 405.849 76.5506C259.305 -86.901 92.0956 59.6425 84.5805 76.5506C63.5436 91.8502 60.0273 132.944 56.4445 174.814C52.988 215.209 49.4697 256.326 30.0963 275.7C25.386 280.41 20.4813 284.683 16.032 288.559C4.5095 298.597 -3.95849 305.974 1.91486 311.396L43.2477 337.699L69.5504 448.546C103.994 457.313 180.397 463.577 216.094 444.789C227.367 442.91 229.245 467.334 229.245 488H341.484ZM227.948 317.113C308.108 323.376 423.339 256.994 365.097 134.873C246.736 -37.9721 17.526 185.6 177.221 290.81C172.837 313.356 158.058 360.701 134.01 369.719C103.95 380.992 216.675 377.233 227.948 317.113Z" fill="url(#paint0_linear)"/>
<path d="M297.522 202.989C297.522 208.832 292.82 213.535 286.977 213.535C281.134 213.535 276.288 208.832 276.288 202.989C276.288 197.146 281.134 192.301 286.977 192.301C292.82 192.301 297.522 197.146 297.522 202.989Z" fill="url(#paint1_linear)"/>
<path d="M262.643 202.989C262.643 208.832 257.94 213.535 252.097 213.535C246.254 213.535 241.409 208.832 241.409 202.989C241.409 197.146 246.254 192.301 252.097 192.301C257.94 192.301 262.643 197.146 262.643 202.989Z" fill="url(#paint2_linear)"/>
<path d="M227.763 202.989C227.763 208.832 223.06 213.535 217.217 213.535C211.374 213.535 206.529 208.832 206.529 202.989C206.529 197.146 211.374 192.301 217.217 192.301C223.06 192.301 227.763 197.146 227.763 202.989Z" fill="url(#paint3_linear)"/>
<defs>
<linearGradient id="paint0_linear" x1="399.81" y1="42.9608" x2="222.408" y2="488" gradientUnits="userSpaceOnUse">
<stop stop-color="#30CFD0"/>
<stop offset="1" stop-color="#1359A6"/>
</linearGradient>
<linearGradient id="paint1_linear" x1="288.316" y1="194.17" x2="286.426" y2="216.452" gradientUnits="userSpaceOnUse">
<stop stop-color="#30CFD0"/>
<stop offset="1" stop-color="#1359A6"/>
</linearGradient>
<linearGradient id="paint2_linear" x1="288.316" y1="194.17" x2="286.426" y2="216.452" gradientUnits="userSpaceOnUse">
<stop stop-color="#30CFD0"/>
<stop offset="1" stop-color="#1359A6"/>
</linearGradient>
<linearGradient id="paint3_linear" x1="288.316" y1="194.17" x2="286.426" y2="216.452" gradientUnits="userSpaceOnUse">
<stop stop-color="#30CFD0"/>
<stop offset="1" stop-color="#1359A6"/>
</linearGradient>
</defs>
</svg>
