<svg width="26" height="28" viewBox="0 0 26 28" fill="none" xmlns="http://www.w3.org/2000/svg">
<path fill-rule="evenodd" clip-rule="evenodd" d="M6.07871 27.9992L5.08066 20.4538C2.02655 18.765 -2.68036 11.3993 2.38586 4.39274C10.7936 -4.98512 20.3871 3.42266 20.8183 4.39274C22.0253 5.27054 22.227 7.62825 22.4326 10.0305C22.6309 12.3481 22.8328 14.7072 23.9443 15.8187C24.2145 16.089 24.4959 16.3341 24.7512 16.5565C25.4123 17.1324 25.8981 17.5557 25.5612 17.8668L23.1897 19.3758L21.6806 25.7356C19.7045 26.2386 15.3209 26.598 13.2729 25.52C12.6261 25.4122 12.5183 26.8135 12.5183 27.9992H6.07871ZM12.5928 18.1947C7.99363 18.554 1.38237 14.7455 4.72394 7.7389C11.5148 -2.17791 24.6655 10.6493 15.5031 16.6856C15.7547 17.9792 16.6026 20.6956 17.9823 21.213C19.707 21.8597 13.2395 21.644 12.5928 18.1947Z" fill="#B5D9D7"/>
<path d="M8.60095 11.647C8.60095 11.9822 8.87077 12.252 9.206 12.252C9.54123 12.252 9.81923 11.9822 9.81923 11.647C9.81923 11.3117 9.54123 11.0338 9.206 11.0338C8.87077 11.0338 8.60095 11.3117 8.60095 11.647Z" fill="#B5D9D7"/>
<path d="M10.6022 11.647C10.6022 11.9822 10.872 12.252 11.2072 12.252C11.5424 12.252 11.8204 11.9822 11.8204 11.647C11.8204 11.3117 11.5424 11.0338 11.2072 11.0338C10.872 11.0338 10.6022 11.3117 10.6022 11.647Z" fill="#B5D9D7"/>
<path d="M12.6034 11.647C12.6034 11.9822 12.8732 12.252 13.2084 12.252C13.5436 12.252 13.8216 11.9822 13.8216 11.647C13.8216 11.3117 13.5436 11.0338 13.2084 11.0338C12.8732 11.0338 12.6034 11.3117 12.6034 11.647Z" fill="#B5D9D7"/>
</svg>
