<svg width="46" height="46" viewBox="0 0 46 46" fill="none" xmlns="http://www.w3.org/2000/svg">
<path d="M23.3927 24.5149C21.5464 24.5149 19.8094 25.2325 18.5055 26.5407C17.8609 27.1804 17.3498 27.9419 17.002 28.7809C16.6543 29.6199 16.4767 30.5197 16.4798 31.4279V37.2908H30.3057V31.4279C30.3057 29.5815 29.5882 27.8445 28.2799 26.5407C27.6402 25.896 26.8787 25.385 26.0397 25.0372C25.2007 24.6894 24.301 24.5119 23.3927 24.5149ZM16.4798 14.4518C16.4798 16.2982 17.1973 18.0351 18.5055 19.339C19.8094 20.6472 21.5464 21.3647 23.3927 21.3647C25.2391 21.3647 26.9761 20.6472 28.2799 19.339C29.5882 18.0351 30.3057 16.2982 30.3057 14.4518V8.5889H16.4798V14.4518Z" fill="#CDD9E5"/>
<path d="M33.4556 14.4518V8.5889H37.2184C37.4109 8.5889 37.5684 8.43139 37.5684 8.23887V5.78871C37.5684 5.5962 37.4109 5.43869 37.2184 5.43869H9.56658C9.37406 5.43869 9.21655 5.5962 9.21655 5.78871V8.23887C9.21655 8.43139 9.37406 8.5889 9.56658 8.5889H13.3293V14.4518C13.3293 18.0176 15.1844 21.1547 17.9846 22.9398C15.1844 24.725 13.3293 27.862 13.3293 31.4279V37.2908H9.56658C9.37406 37.2908 9.21655 37.4483 9.21655 37.6408V40.091C9.21655 40.2835 9.37406 40.441 9.56658 40.441H37.2184C37.4109 40.441 37.5684 40.2835 37.5684 40.091V37.6408C37.5684 37.4483 37.4109 37.2908 37.2184 37.2908H33.4556V31.4279C33.4556 27.862 31.6005 24.725 28.8003 22.9398C31.6005 21.1547 33.4556 18.0176 33.4556 14.4518ZM30.3054 31.4279V37.2908H16.4795V31.4279C16.4795 29.5815 17.1971 27.8445 18.5053 26.5407C19.8091 25.2325 21.5461 24.5149 23.3925 24.5149C25.2388 24.5149 26.9758 25.2325 28.2797 26.5407C29.5879 27.8445 30.3054 29.5815 30.3054 31.4279ZM30.3054 14.4518C30.3054 16.2982 29.5879 18.0351 28.2797 19.339C26.9758 20.6472 25.2388 21.3647 23.3925 21.3647C21.5461 21.3647 19.8091 20.6472 18.5053 19.339C17.8606 18.6992 17.3496 17.9377 17.0018 17.0987C16.654 16.2597 16.4765 15.36 16.4795 14.4518V8.5889H30.3054V14.4518Z" fill="#00509D"/>
</svg>
