<svg width="45" height="46" viewBox="0 0 45 46" fill="none" xmlns="http://www.w3.org/2000/svg">
<path d="M22.4355 3.55762C11.6111 3.55762 2.83423 12.3344 2.83423 23.1589C2.83423 33.9834 11.6111 42.7602 22.4355 42.7602C33.26 42.7602 42.0368 33.9834 42.0368 23.1589C42.0368 12.3344 33.26 3.55762 22.4355 3.55762ZM22.4355 39.435C13.4487 39.435 6.15945 32.1457 6.15945 23.1589C6.15945 14.1721 13.4487 6.88283 22.4355 6.88283C31.4223 6.88283 38.7116 14.1721 38.7116 23.1589C38.7116 32.1457 31.4223 39.435 22.4355 39.435Z" fill="#00509D"/>
<path d="M22.4352 6.88281C13.4484 6.88281 6.15918 14.172 6.15918 23.1589C6.15918 32.1457 13.4484 39.4349 22.4352 39.4349C31.4221 39.4349 38.7113 32.1457 38.7113 23.1589C38.7113 14.172 31.4221 6.88281 22.4352 6.88281ZM12.6346 19.1774C12.6458 18.6278 12.872 18.1045 13.2646 17.7198C13.6573 17.3351 14.1851 17.1197 14.7347 17.1197C15.2844 17.1197 15.8122 17.3351 16.2048 17.7198C16.5975 18.1045 16.8237 18.6278 16.8349 19.1774C16.8237 19.7269 16.5975 20.2502 16.2048 20.6349C15.8122 21.0196 15.2844 21.2351 14.7347 21.2351C14.1851 21.2351 13.6573 21.0196 13.2646 20.6349C12.872 20.2502 12.6458 19.7269 12.6346 19.1774ZM22.4352 31.0781C18.6944 31.0781 15.6273 28.1336 15.4348 24.4452C15.4324 24.3978 15.4397 24.3504 15.4562 24.3059C15.4728 24.2614 15.4982 24.2207 15.5309 24.1863C15.5636 24.1519 15.603 24.1246 15.6467 24.1059C15.6903 24.0872 15.7373 24.0776 15.7848 24.0777H17.8893C18.0731 24.0777 18.2306 24.2177 18.2437 24.4015C18.41 26.5672 20.2257 28.278 22.4352 28.278C24.6448 28.278 26.4649 26.5672 26.6268 24.4015C26.6399 24.2177 26.7974 24.0777 26.9812 24.0777H29.0857C29.1332 24.0776 29.1801 24.0872 29.2238 24.1059C29.2674 24.1246 29.3068 24.1519 29.3396 24.1863C29.3723 24.2207 29.3977 24.2614 29.4143 24.3059C29.4308 24.3504 29.4381 24.3978 29.4357 24.4452C29.2432 28.1336 26.1761 31.0781 22.4352 31.0781ZM30.1357 21.2775C29.5862 21.2663 29.0629 21.0401 28.6782 20.6475C28.2935 20.2548 28.078 19.727 28.078 19.1774C28.078 18.6277 28.2935 18.0999 28.6782 17.7073C29.0629 17.3146 29.5862 17.0884 30.1357 17.0772C30.6853 17.0884 31.2086 17.3146 31.5933 17.7073C31.978 18.0999 32.1935 18.6277 32.1935 19.1774C32.1935 19.727 31.978 20.2548 31.5933 20.6475C31.2086 21.0401 30.6853 21.2663 30.1357 21.2775Z" fill="#CDD9E5"/>
<path d="M12.6348 19.1773C12.6348 19.7343 12.856 20.2685 13.2499 20.6624C13.6437 21.0562 14.1779 21.2775 14.7349 21.2775C15.2919 21.2775 15.8261 21.0562 16.2199 20.6624C16.6138 20.2685 16.835 19.7343 16.835 19.1773C16.835 18.6204 16.6138 18.0862 16.2199 17.6923C15.8261 17.2985 15.2919 17.0772 14.7349 17.0772C14.1779 17.0772 13.6437 17.2985 13.2499 17.6923C12.856 18.0862 12.6348 18.6204 12.6348 19.1773ZM29.0858 24.0777H26.9813C26.7976 24.0777 26.6401 24.2177 26.6269 24.4014C26.465 26.5672 24.6449 28.2779 22.4354 28.2779C20.2259 28.2779 18.4101 26.5672 18.2439 24.4014C18.2308 24.2177 18.0732 24.0777 17.8895 24.0777H15.785C15.7375 24.0776 15.6905 24.0872 15.6469 24.1059C15.6032 24.1246 15.5638 24.1519 15.5311 24.1863C15.4983 24.2207 15.4729 24.2614 15.4564 24.3059C15.4399 24.3504 15.4326 24.3978 15.4349 24.4452C15.6275 28.1336 18.6945 31.0781 22.4354 31.0781C26.1763 31.0781 29.2434 28.1336 29.4359 24.4452C29.4382 24.3978 29.4309 24.3504 29.4144 24.3059C29.3979 24.2614 29.3725 24.2207 29.3397 24.1863C29.307 24.1519 29.2676 24.1246 29.224 24.1059C29.1803 24.0872 29.1333 24.0776 29.0858 24.0777ZM28.0358 19.1773C28.0358 19.7343 28.257 20.2685 28.6509 20.6624C29.0447 21.0562 29.5789 21.2775 30.1359 21.2775C30.6929 21.2775 31.2271 21.0562 31.6209 20.6624C32.0148 20.2685 32.236 19.7343 32.236 19.1773C32.236 18.6204 32.0148 18.0862 31.6209 17.6923C31.2271 17.2985 30.6929 17.0772 30.1359 17.0772C29.5789 17.0772 29.0447 17.2985 28.6509 17.6923C28.257 18.0862 28.0358 18.6204 28.0358 19.1773Z" fill="#00509D"/>
</svg>
