<svg width="45" height="46" viewBox="0 0 45 46" fill="none" xmlns="http://www.w3.org/2000/svg">
<path d="M5.98438 35.3239H31.186V10.8223H5.98438V35.3239ZM8.78456 13.9725C8.78456 13.78 8.94207 13.6224 9.13458 13.6224H14.0349C14.2274 13.6224 14.3849 13.78 14.3849 13.9725V16.0726C14.3849 16.2651 14.2274 16.4226 14.0349 16.4226H9.13458C8.94207 16.4226 8.78456 16.2651 8.78456 16.0726V13.9725Z" fill="#CDD9E5"/>
<path d="M39.9367 13.8981L34.3363 17.1226V10.4722C34.3363 8.92773 33.0806 7.67203 31.5361 7.67203H5.63441C4.08994 7.67203 2.83423 8.92773 2.83423 10.4722V35.6739C2.83423 37.2183 4.08994 38.474 5.63441 38.474H31.5361C33.0806 38.474 34.3363 37.2183 34.3363 35.6739V29.0234L39.9367 32.248C40.8686 32.7862 42.0368 32.1124 42.0368 31.0404V15.11C42.0368 14.0337 40.8686 13.3599 39.9367 13.8981ZM31.1861 35.3238H5.98443V10.8222H31.1861V35.3238ZM38.8866 28.0171L34.3363 25.4007V20.7498L38.8866 18.129V28.0171Z" fill="#00509D"/>
<path d="M9.13432 16.4226H14.0346C14.2272 16.4226 14.3847 16.2651 14.3847 16.0726V13.9724C14.3847 13.7799 14.2272 13.6224 14.0346 13.6224H9.13432C8.94181 13.6224 8.7843 13.7799 8.7843 13.9724V16.0726C8.7843 16.2651 8.94181 16.4226 9.13432 16.4226Z" fill="#00509D"/>
</svg>
