<svg width="45" height="46" viewBox="0 0 45 46" fill="none" xmlns="http://www.w3.org/2000/svg">
<path d="M22.4824 8.15674L6.29389 24.3322H10.4942V38.5825H17.2277V28.6068C17.2277 27.6399 18.0109 26.8567 18.9778 26.8567H25.9783C26.9452 26.8567 27.7284 27.6399 27.7284 28.6068V38.5825H34.462V24.3322H38.6666L23.4931 9.16743L22.4824 8.15674ZM41.4931 26.6598C41.2305 26.9223 40.9199 27.1324 40.583 27.268C40.9199 27.128 41.2305 26.9223 41.4931 26.6598ZM2.68427 25.1416C2.90304 26.4673 4.05811 27.4824 5.44508 27.4824H5.48446C4.08874 27.4824 2.90741 26.4761 2.68427 25.1416ZM2.6449 24.6822V24.5991V24.6822ZM2.64927 24.5684C2.65365 24.4328 2.67115 24.3015 2.69303 24.1703C2.66677 24.2972 2.65365 24.4328 2.64927 24.5684Z" fill="#CDD9E5"/>
<path d="M41.6856 22.919C41.6856 22.9146 41.6812 22.9146 41.6812 22.9102L41.6025 22.8184C41.5981 22.814 41.5937 22.8052 41.585 22.8009C41.5543 22.7659 41.5193 22.7309 41.4887 22.6959L24.5826 5.80287L23.4494 4.66967C23.1912 4.41318 22.842 4.26923 22.4781 4.26923C22.1141 4.26923 21.765 4.41318 21.5068 4.66967L3.46747 22.7002C3.14158 23.0244 2.90107 23.4242 2.76742 23.8641L2.74117 23.9559L2.72805 24.0041L2.71492 24.0566C2.70617 24.0872 2.7018 24.1178 2.69742 24.1484C2.69742 24.1528 2.69742 24.1616 2.69304 24.1659C2.66679 24.2972 2.65367 24.4285 2.64929 24.5641V24.7085C2.64929 24.7304 2.64929 24.7522 2.65367 24.7741C2.65367 24.796 2.65367 24.8135 2.65804 24.8354C2.65804 24.8572 2.66242 24.8791 2.66242 24.901C2.66242 24.9272 2.66679 24.9535 2.67117 24.9798C2.67117 24.9929 2.67554 25.006 2.67554 25.0191L2.68867 25.1285V25.1329C2.91181 26.4673 4.09751 27.4737 5.48885 27.4737H7.34835V41.7327H37.6122V27.4824H39.5111C39.8874 27.4824 40.2505 27.408 40.583 27.268C40.9155 27.128 41.2262 26.9224 41.4931 26.6599C41.7538 26.4 41.9603 26.091 42.1007 25.7508C42.2412 25.4106 42.3127 25.0459 42.3113 24.6779C42.3113 24.0347 42.0925 23.4178 41.6856 22.919ZM24.9283 38.5825H20.0279V29.6569H24.9283V38.5825ZM34.462 24.3322V38.5825H27.7284V28.6069C27.7284 27.6399 26.9453 26.8568 25.9783 26.8568H18.9779C18.0109 26.8568 17.2277 27.6399 17.2277 28.6069V38.5825H10.4942V24.3322H6.29391L22.4825 8.15678L23.4932 9.16747L38.6666 24.3322H34.462Z" fill="#00509D"/>
</svg>
