<svg width="45" height="46" viewBox="0 0 45 46" fill="none" xmlns="http://www.w3.org/2000/svg">
<path d="M22.4782 3.55762C11.6538 3.55762 2.87695 12.3344 2.87695 23.1589C2.87695 33.9834 11.6538 42.7602 22.4782 42.7602C33.3027 42.7602 42.0795 33.9834 42.0795 23.1589C42.0795 12.3344 33.3027 3.55762 22.4782 3.55762ZM22.4782 39.435C13.4914 39.435 6.20217 32.1457 6.20217 23.1589C6.20217 14.1721 13.4914 6.88283 22.4782 6.88283C31.4651 6.88283 38.7543 14.1721 38.7543 23.1589C38.7543 32.1457 31.4651 39.435 22.4782 39.435Z" fill="#00509D"/>
<path d="M22.4781 6.88281C13.4913 6.88281 6.20203 14.172 6.20203 23.1589C6.20203 32.1457 13.4913 39.4349 22.4781 39.4349C31.4649 39.4349 38.7542 32.1457 38.7542 23.1589C38.7542 14.172 31.4649 6.88281 22.4781 6.88281ZM30.2005 29.1836L28.9491 30.89C28.9219 30.9272 28.8876 30.9586 28.8482 30.9824C28.8088 31.0063 28.7651 31.0221 28.7196 31.0291C28.674 31.036 28.6276 31.0338 28.5829 31.0227C28.5382 31.0116 28.4961 30.9918 28.4591 30.9644L21.2224 25.6878C21.1773 25.6554 21.1407 25.6127 21.1155 25.5632C21.0904 25.5137 21.0775 25.4589 21.078 25.4034V13.3582C21.078 13.1657 21.2355 13.0082 21.428 13.0082H23.5325C23.725 13.0082 23.8826 13.1657 23.8826 13.3582V24.1871L30.1217 28.698C30.2792 28.8074 30.3142 29.0261 30.2005 29.1836Z" fill="#CDD9E5"/>
<path d="M30.1218 28.698L23.8827 24.1871V13.3583C23.8827 13.1657 23.7252 13.0082 23.5327 13.0082H21.4281C21.2356 13.0082 21.0781 13.1657 21.0781 13.3583V25.4034C21.0781 25.5172 21.1306 25.6222 21.2225 25.6878L28.4592 30.9644C28.6167 31.0781 28.8355 31.0475 28.9493 30.89L30.2006 29.1836C30.3143 29.0261 30.2793 28.8074 30.1218 28.698Z" fill="#00509D"/>
</svg>
