<svg width="46" height="46" viewBox="0 0 46 46" fill="none" xmlns="http://www.w3.org/2000/svg">
<path d="M41.3749 13.1657C40.7884 11.8078 39.9428 10.5773 38.8853 9.543C37.8271 8.50565 36.5794 7.68127 35.2101 7.11472C33.7902 6.5249 32.2673 6.22299 30.7298 6.22653C28.5728 6.22653 26.4683 6.8172 24.6394 7.93289C24.2019 8.19979 23.7862 8.49293 23.3924 8.81233C22.9987 8.49293 22.583 8.19979 22.1455 7.93289C20.3166 6.8172 18.2121 6.22653 16.0551 6.22653C14.5019 6.22653 12.9968 6.52405 11.5748 7.11472C10.201 7.6835 8.96275 8.50168 7.89956 9.543C6.84072 10.5761 5.9949 11.8069 5.41002 13.1657C4.80186 14.579 4.49121 16.0797 4.49121 17.6242C4.49121 19.0811 4.78873 20.5993 5.37939 22.1438C5.8738 23.4345 6.5826 24.7734 7.48828 26.1253C8.92338 28.2648 10.8966 30.4962 13.3468 32.7583C17.4071 36.5079 21.4279 39.0981 21.5986 39.2031L22.6355 39.8681C23.0949 40.1613 23.6856 40.1613 24.145 39.8681L25.1819 39.2031C25.3526 39.0937 29.3691 36.5079 33.4337 32.7583C35.8839 30.4962 37.8571 28.2648 39.2922 26.1253C40.1979 24.7734 40.9111 23.4345 41.4011 22.1438C41.9918 20.5993 42.2893 19.0811 42.2893 17.6242C42.2937 16.0797 41.983 14.579 41.3749 13.1657ZM23.3924 36.4073C23.3924 36.4073 7.81643 26.4272 7.81643 17.6242C7.81643 13.1657 11.5048 9.55175 16.0551 9.55175C19.2534 9.55175 22.0274 11.3369 23.3924 13.9445C24.7575 11.3369 27.5315 9.55175 30.7298 9.55175C35.2801 9.55175 38.9685 13.1657 38.9685 17.6242C38.9685 26.4272 23.3924 36.4073 23.3924 36.4073Z" fill="#00509D"/>
<path d="M30.7299 9.55176C27.5316 9.55176 24.7576 11.3369 23.3925 13.9445C22.0275 11.3369 19.2535 9.55176 16.0552 9.55176C11.5049 9.55176 7.81653 13.1657 7.81653 17.6242C7.81653 26.4272 23.3925 36.4073 23.3925 36.4073C23.3925 36.4073 38.9686 26.4272 38.9686 17.6242C38.9686 13.1657 35.2802 9.55176 30.7299 9.55176Z" fill="#CDD9E5"/>
</svg>
